<?xml version="1.0" encoding="utf-8"?>
<!-- Generator: Adobe Illustrator 28.0.0, SVG Export Plug-In . SVG Version: 6.00 Build 0)  -->
<svg version="1.1" id="Layer_1" xmlns="http://www.w3.org/2000/svg" xmlns:xlink="http://www.w3.org/1999/xlink" x="0px" y="0px"
	 viewBox="0 0 64.3 64.3" style="enable-background:new 0 0 64.3 64.3;" xml:space="preserve">
<style type="text/css">
	.st0{fill:#595A5C;}
</style>
<g>
	<path class="st0" d="M38.3,32.15c0,3.4-2.75,6.15-6.15,6.15S26,35.55,26,32.15S28.75,26,32.15,26S38.3,28.75,38.3,32.15z"/>
	<path class="st0" d="M46.54,21.26c-0.3-0.8-0.77-1.53-1.38-2.12c-0.6-0.61-1.32-1.09-2.12-1.38c-0.65-0.25-1.63-0.55-3.43-0.64
		c-1.95-0.09-2.53-0.11-7.46-0.11c-4.93,0-5.51,0.02-7.46,0.11c-1.8,0.08-2.78,0.38-3.43,0.64c-0.8,0.3-1.53,0.77-2.12,1.38
		c-0.61,0.6-1.09,1.32-1.38,2.12c-0.25,0.65-0.55,1.63-0.64,3.43c-0.09,1.95-0.11,2.53-0.11,7.46c0,4.93,0.02,5.51,0.11,7.46
		c0.08,1.8,0.38,2.78,0.64,3.43c0.3,0.8,0.77,1.53,1.38,2.12c0.6,0.61,1.32,1.09,2.12,1.38c0.65,0.25,1.63,0.55,3.43,0.64
		c1.95,0.09,2.53,0.11,7.46,0.11c4.93,0,5.51-0.02,7.46-0.11c1.8-0.08,2.78-0.38,3.43-0.64c1.61-0.62,2.88-1.89,3.5-3.5
		c0.25-0.65,0.55-1.63,0.64-3.43c0.09-1.95,0.11-2.53,0.11-7.46c0-4.93-0.02-5.51-0.11-7.46C47.09,22.89,46.79,21.91,46.54,21.26z
		 M32.15,41.63c-5.24,0-9.48-4.24-9.48-9.48s4.24-9.48,9.48-9.48c5.24,0,9.48,4.24,9.48,9.48S37.38,41.63,32.15,41.63z M42,24.51
		c-1.22,0-2.22-0.99-2.22-2.22c0-1.22,0.99-2.22,2.22-2.22c1.22,0,2.22,0.99,2.22,2.22C44.22,23.52,43.23,24.51,42,24.51z"/>
	<path class="st0" d="M32.15,0C14.4,0,0,14.4,0,32.15S14.4,64.3,32.15,64.3S64.3,49.9,64.3,32.15S49.9,0,32.15,0z M50.5,39.76
		c-0.09,1.97-0.4,3.31-0.86,4.48c-0.96,2.48-2.92,4.44-5.4,5.4c-1.17,0.46-2.52,0.77-4.48,0.86c-1.97,0.09-2.6,0.11-7.61,0.11
		c-5.01,0-5.64-0.02-7.61-0.11c-1.96-0.09-3.31-0.4-4.48-0.86c-1.23-0.46-2.35-1.19-3.27-2.13c-0.94-0.92-1.67-2.04-2.13-3.27
		c-0.46-1.17-0.77-2.52-0.86-4.48c-0.09-1.97-0.11-2.6-0.11-7.61s0.02-5.64,0.11-7.61c0.09-1.97,0.4-3.31,0.86-4.48
		c0.46-1.23,1.19-2.35,2.13-3.27c0.92-0.94,2.04-1.67,3.27-2.13c1.17-0.46,2.52-0.77,4.48-0.86c1.97-0.09,2.6-0.11,7.61-0.11
		s5.64,0.02,7.61,0.11c1.97,0.09,3.31,0.4,4.48,0.86c1.23,0.46,2.35,1.19,3.27,2.13c0.94,0.92,1.67,2.04,2.13,3.27
		c0.46,1.17,0.77,2.52,0.86,4.48c0.09,1.97,0.11,2.6,0.11,7.61S50.59,37.79,50.5,39.76z"/>
</g>
</svg>
