<?xml version="1.0" encoding="utf-8"?>
<!-- Generator: Adobe Illustrator 28.0.0, SVG Export Plug-In . SVG Version: 6.00 Build 0)  -->
<svg version="1.1" id="Layer_1" xmlns="http://www.w3.org/2000/svg" xmlns:xlink="http://www.w3.org/1999/xlink" x="0px" y="0px"
	 viewBox="0 0 64.3 64.3" style="enable-background:new 0 0 64.3 64.3;" xml:space="preserve">
<style type="text/css">
	.st0{fill:#595A5C;}
</style>
<path class="st0" d="M32.15,0C14.4,0,0,14.4,0,32.15S14.4,64.3,32.15,64.3S64.3,49.9,64.3,32.15S49.9,0,32.15,0z M22.81,48.6h-7.83
	V25.04h7.83V48.6z M18.89,21.83h-0.05c-2.63,0-4.33-1.81-4.33-4.07c0-2.31,1.75-4.07,4.43-4.07s4.33,1.76,4.38,4.07
	C23.32,20.02,21.62,21.83,18.89,21.83z M51.04,48.6h-7.83V36c0-3.17-1.13-5.33-3.97-5.33c-2.16,0-3.45,1.46-4.02,2.86
	c-0.21,0.5-0.26,1.21-0.26,1.91V48.6h-7.83c0,0,0.1-21.35,0-23.56h7.83v3.34c1.04-1.61,2.9-3.89,7.06-3.89
	c5.15,0,9.01,3.37,9.01,10.6V48.6z"/>
</svg>
