<svg width="180" height="65" viewBox="0 0 180 65" fill="none" xmlns="http://www.w3.org/2000/svg">
<g clip-path="url(#clip0_2001_76)">
<path d="M75.1445 11.0817V7.81348L65.3901 7.81348V11.0817H75.1445Z" fill="#231F20"/>
<path d="M71.8913 0H68.623V39.3246H71.8913V0Z" fill="#231F20"/>
<path d="M35.5938 21.9575V25.2207H64.6711L64.5907 21.9575H35.5938Z" fill="#231F20"/>
<path d="M60.4476 29.8414C58.9308 32.4702 56.51 34.4579 53.6364 35.4342C50.7627 36.4106 47.632 36.3089 44.8277 35.1482C42.0234 33.9874 39.7368 31.8468 38.3937 29.1251C37.0507 26.4034 36.7429 23.2863 37.5277 20.3545C38.3125 17.4227 40.1364 14.8762 42.6595 13.1895C45.1826 11.5027 48.2329 10.7907 51.242 11.1861C54.2512 11.5816 57.0139 13.0575 59.0156 15.3388C61.0172 17.6202 62.1213 20.5515 62.122 23.5865C62.12 24.1328 62.0847 24.6785 62.0163 25.2206H65.3047C65.3612 24.6777 65.3897 24.1323 65.3902 23.5865C65.3915 19.7586 64.001 16.0608 61.4781 13.1821C58.9552 10.3033 55.4718 8.43985 51.6768 7.93894C47.8819 7.43802 44.0342 8.33379 40.8507 10.4593C37.6673 12.5849 35.3651 15.7953 34.373 19.4924C33.381 23.1894 33.7669 27.1211 35.4587 30.5548C37.1505 33.9885 40.0328 36.6901 43.5688 38.1562C47.1047 39.6224 51.0531 39.7531 54.6783 38.524C58.3035 37.2949 61.3582 34.7898 63.2734 31.4755L60.4476 29.8414Z" fill="#231F20"/>
<path d="M106.686 23.5866C106.683 26.7066 105.755 29.7557 104.019 32.3484C102.284 34.9411 99.8184 36.961 96.9351 38.1529C94.0517 39.3448 90.8798 39.6551 87.8201 39.0446C84.7604 38.4341 81.9504 36.9302 79.7454 34.723C77.5403 32.5158 76.039 29.7044 75.4315 26.6442C74.8239 23.5839 75.1372 20.4122 76.3319 17.5301C77.5265 14.6479 79.5488 12.1846 82.1432 10.4515C84.7376 8.71845 87.7876 7.79346 90.9075 7.79346C92.981 7.7928 95.0342 8.20095 96.9498 8.99458C98.8654 9.78822 100.606 10.9517 102.071 12.4186C103.537 13.8855 104.698 15.6269 105.49 17.5432C106.282 19.4595 106.688 21.5132 106.686 23.5866ZM90.9075 11.0818C88.4331 11.0818 86.0142 11.8156 83.9569 13.1905C81.8995 14.5653 80.2961 16.5194 79.3494 18.8055C78.4027 21.0917 78.1553 23.6073 78.6384 26.0341C79.1215 28.4609 80.3134 30.6899 82.0635 32.4392C83.8135 34.1886 86.043 35.3796 88.47 35.8617C90.897 36.3439 93.4125 36.0954 95.6983 35.1478C97.9841 34.2002 99.9375 32.596 101.312 30.5381C102.685 28.4802 103.418 26.0611 103.417 23.5866C103.417 21.9441 103.094 20.3176 102.465 18.8001C101.836 17.2826 100.915 15.9039 99.753 14.7426C98.5913 13.5814 97.2122 12.6604 95.6944 12.0323C94.1767 11.4041 92.5501 11.0812 90.9075 11.0818Z" fill="#231F20"/>
<path d="M124.751 39.3596C121.632 39.3586 118.583 38.4327 115.99 36.6989C113.397 34.9652 111.376 32.5014 110.183 29.6192C108.99 26.7369 108.678 23.5656 109.287 20.5063C109.896 17.447 111.399 14.6369 113.605 12.4315C115.811 10.2261 118.622 8.72439 121.681 8.11619C124.741 7.50799 127.912 7.82065 130.794 9.01462C133.676 10.2086 136.139 12.2303 137.872 14.824C139.605 17.4178 140.53 20.4672 140.53 23.5866C140.53 25.6583 140.121 27.7098 139.328 29.6238C138.535 31.5378 137.373 33.2768 135.908 34.7416C134.443 36.2063 132.703 37.368 130.789 38.1604C128.875 38.9528 126.823 39.3603 124.751 39.3596ZM137.261 23.5866C137.261 21.1123 136.528 18.6937 135.153 16.6365C133.778 14.5792 131.825 12.9758 129.539 12.029C127.253 11.0821 124.738 10.8344 122.311 11.3171C119.884 11.7998 117.655 12.9912 115.906 14.7408C114.156 16.4903 112.965 18.7193 112.482 21.146C111.999 23.5727 112.247 26.088 113.194 28.3739C114.141 30.6597 115.744 32.6135 117.801 33.9881C119.859 35.3627 122.277 36.0964 124.751 36.0964C126.394 36.0971 128.021 35.7739 129.54 35.1455C131.058 34.517 132.437 33.5956 133.599 32.4338C134.76 31.272 135.682 29.8927 136.31 28.3746C136.939 26.8566 137.262 25.2296 137.261 23.5866Z" fill="#231F20"/>
<path d="M112.252 9.44775H108.983V47.1784H112.252V9.44775Z" fill="#231F20"/>
<path d="M148.449 23.5866C148.449 20.4672 149.374 17.4178 151.107 14.824C152.84 12.2303 155.303 10.2086 158.185 9.01462C161.066 7.82065 164.238 7.50799 167.297 8.11619C170.357 8.72439 173.167 10.2261 175.373 12.4315C177.579 14.6369 179.082 17.447 179.691 20.5063C180.3 23.5656 179.989 26.7369 178.796 29.6192C177.603 32.5014 175.582 34.9652 172.989 36.6989C170.395 38.4327 167.346 39.3586 164.227 39.3596C160.043 39.3596 156.031 37.698 153.072 34.7401C150.113 31.7822 148.45 27.7703 148.449 23.5866ZM164.227 36.0964C166.701 36.0974 169.12 35.3645 171.178 33.9906C173.236 32.6166 174.84 30.6631 175.788 28.3773C176.736 26.0916 176.984 23.5761 176.502 21.1491C176.02 18.7221 174.829 16.4926 173.079 14.7425C171.33 12.9925 169.101 11.8005 166.674 11.3174C164.247 10.8343 161.732 11.0818 159.446 12.0285C157.16 12.9752 155.205 14.5786 153.831 16.6359C152.456 18.6933 151.722 21.1121 151.722 23.5866C151.722 26.9035 153.039 30.0847 155.384 32.4306C157.729 34.7765 160.91 36.0951 164.227 36.0964Z" fill="#231F20"/>
<path d="M176.732 39.3245H180V9.44764H176.732V39.3245Z" fill="#231F20"/>
<path d="M146.136 9.44756L150.852 4.73123L146.136 0.0148926V9.44756Z" fill="#F69348"/>
<path d="M142.868 39.3246H146.136V9.44775L142.868 12.6858V39.3246Z" fill="#231F20"/>
<path d="M31.5461 23.5866C31.5422 26.7054 30.6137 29.753 28.8781 32.3442C27.1425 34.9354 24.6777 36.954 21.7952 38.1447C18.9127 39.3354 15.742 39.6449 12.6836 39.0341C9.62527 38.4232 6.81663 36.9194 4.61273 34.7127C2.40884 32.506 0.908594 29.6954 0.301615 26.6363C-0.305364 23.5772 0.00816529 20.4068 1.20258 17.5258C2.397 14.6448 4.41869 12.1826 7.01212 10.4503C9.60555 8.71803 12.6543 7.79346 15.7731 7.79346C17.8461 7.79346 19.8988 8.20211 21.8138 8.99603C23.7288 9.78996 25.4685 10.9536 26.9334 12.4204C28.3983 13.8872 29.5597 15.6284 30.3512 17.5444C31.1427 19.4604 31.5488 21.5136 31.5461 23.5866ZM15.7731 11.0818C13.2984 11.0808 10.8791 11.8138 8.82111 13.188C6.7631 14.5622 5.15885 16.5159 4.21138 18.802C3.26392 21.0881 3.01576 23.6038 3.4983 26.031C3.98083 28.4581 5.17242 30.6876 6.92226 32.4375C8.6721 34.1873 10.9016 35.3788 13.3287 35.8614C15.7558 36.3439 18.2716 36.0958 20.5577 35.1483C22.8437 34.2008 24.7975 32.5966 26.1717 30.5386C27.5459 28.4806 28.2789 26.0613 28.2779 23.5866C28.2779 20.2702 26.9604 17.0895 24.6153 14.7444C22.2702 12.3993 19.0896 11.0818 15.7731 11.0818Z" fill="#231F20"/>
<path d="M3.26825 0H0V39.3246H3.26825V0Z" fill="#231F20"/>
<path d="M125.833 59.0797C124.776 59.0994 123.734 58.8336 122.816 58.3104C121.943 57.8041 121.224 57.0709 120.734 56.1886C120.239 55.2466 119.98 54.1983 119.98 53.134C119.98 52.0697 120.239 51.0214 120.734 50.0795C121.215 49.1919 121.93 48.4529 122.801 47.9425C123.703 47.4193 124.729 47.15 125.772 47.1632C126.619 47.1449 127.459 47.3167 128.231 47.666C128.943 47.992 129.563 48.4896 130.036 49.1141C130.521 49.7692 130.842 50.5314 130.971 51.3365V54.9014C130.836 55.7018 130.512 56.4585 130.026 57.1087C129.555 57.732 128.939 58.2309 128.231 58.5618C127.48 58.9102 126.661 59.0871 125.833 59.0797ZM125.576 64.3843C124.502 64.4015 123.438 64.1818 122.459 63.7407C121.565 63.3282 120.795 62.6885 120.226 61.8854L121.056 61.0759C121.536 61.724 122.17 62.2424 122.901 62.5843C123.746 62.9775 124.67 63.1718 125.601 63.1525C126.886 63.2137 128.146 62.78 129.121 61.9407C129.562 61.5246 129.909 61.0181 130.136 60.4557C130.363 59.8933 130.466 59.2884 130.438 58.6825V55.7612L130.74 53.036L130.438 50.3862V47.4297H131.725V58.7177C131.755 59.7753 131.488 60.8201 130.956 61.7345C130.437 62.5856 129.687 63.2724 128.794 63.7156C127.791 64.1956 126.688 64.43 125.576 64.3994V64.3843ZM126.034 57.8931C126.856 57.9123 127.667 57.7072 128.382 57.2998C129.053 56.9038 129.601 56.3272 129.961 55.6355C130.353 54.8566 130.548 53.9933 130.529 53.1215C130.548 52.2624 130.353 51.4121 129.961 50.6477C129.594 49.9546 129.042 49.3768 128.367 48.9783C127.651 48.5656 126.835 48.3569 126.009 48.375C125.162 48.3588 124.325 48.567 123.585 48.9783C122.888 49.3737 122.311 49.9506 121.916 50.6477C121.502 51.3965 121.294 52.2412 121.312 53.0963C121.298 53.959 121.506 54.8109 121.916 55.5701C122.309 56.2811 122.89 56.8707 123.595 57.2746C124.331 57.6961 125.166 57.9147 126.014 57.9082L126.034 57.8931Z" fill="#231F20"/>
<path d="M134.491 59.1703V47.4297H135.778V59.1703H134.491ZM135.778 52.1762L135.15 51.9248C135.068 50.6498 135.474 49.3914 136.286 48.4052C136.662 47.9936 137.123 47.6688 137.637 47.4535C138.151 47.2381 138.706 47.1374 139.263 47.1582C139.812 47.1538 140.357 47.2562 140.867 47.4599C141.396 47.6873 141.866 48.031 142.244 48.4655L141.384 49.3756C141.103 49.0456 140.748 48.7856 140.349 48.6163C139.93 48.4563 139.484 48.3794 139.036 48.3901C138.598 48.3747 138.162 48.4533 137.757 48.6207C137.352 48.7881 136.988 49.0404 136.688 49.3605C136.035 50.1478 135.71 51.1557 135.778 52.1762Z" fill="#231F20"/>
<path d="M148.202 59.4216C147.124 59.4357 146.063 59.1521 145.135 58.602C144.208 58.055 143.441 57.2735 142.912 56.3362C142.382 55.3989 142.109 54.3387 142.118 53.2622C142.101 52.1768 142.381 51.1073 142.928 50.1699C143.453 49.2638 144.205 48.5101 145.11 47.9827C146.051 47.4551 147.111 47.178 148.19 47.178C149.268 47.178 150.329 47.4551 151.27 47.9827C152.195 48.5169 152.962 49.2871 153.492 50.2147C154.022 51.1422 154.296 52.1939 154.286 53.2622C154.302 54.3398 154.031 55.4022 153.501 56.3405C152.971 57.2788 152.201 58.0593 151.27 58.602C150.341 59.1504 149.281 59.4339 148.202 59.4216ZM148.202 58.2098C149.062 58.2309 149.911 58.0096 150.651 57.5713C151.362 57.1376 151.945 56.5235 152.341 55.7913C152.761 55.0118 152.974 54.1375 152.959 53.2522C152.974 52.3875 152.761 51.5341 152.341 50.7783C151.942 50.0547 151.359 49.4493 150.651 49.0235C149.914 48.5873 149.069 48.3645 148.213 48.38C147.365 48.3666 146.531 48.5895 145.804 49.0235C145.095 49.4418 144.507 50.038 144.1 50.7532C143.665 51.5186 143.446 52.3874 143.466 53.2672C143.452 54.1464 143.671 55.0137 144.1 55.7813C144.503 56.5102 145.091 57.1205 145.804 57.5512C146.526 57.9904 147.357 58.2186 148.202 58.2098Z" fill="#231F20"/>
<path d="M160.878 59.3965C159.998 59.4112 159.129 59.1889 158.364 58.7529C157.627 58.3282 157.027 57.702 156.635 56.9478C156.21 56.1213 155.997 55.202 156.016 54.2729V47.4297H157.303V54.2226C157.287 54.9414 157.439 55.6541 157.746 56.3042C158.021 56.8815 158.455 57.3682 158.998 57.7071C159.559 58.0492 160.206 58.2237 160.863 58.2099C161.353 58.2323 161.842 58.1456 162.294 57.9561C162.746 57.7665 163.15 57.4788 163.478 57.1138C164.152 56.3057 164.498 55.2739 164.448 54.2226V47.4297H165.735V54.2729C165.754 55.202 165.542 56.1213 165.117 56.9478C164.724 57.6987 164.128 58.3241 163.397 58.7529C162.632 59.1929 161.761 59.4154 160.878 59.3965Z" fill="#231F20"/>
<path d="M168.25 64.148V47.4296H169.537V50.361L169.235 53.2119L169.537 56.093V64.1379L168.25 64.148ZM174.208 59.4216C173.374 59.4298 172.549 59.2494 171.794 58.8937C171.067 58.5494 170.433 58.0346 169.947 57.3929C169.461 56.7512 169.138 56.0017 169.004 55.2081V51.3666C169.14 50.5534 169.475 49.7865 169.979 49.1342C170.466 48.5081 171.097 48.0094 171.819 47.681C172.569 47.3415 173.385 47.1699 174.208 47.1782C175.257 47.1612 176.291 47.44 177.189 47.9827C178.06 48.5198 178.773 49.2779 179.256 50.18C179.771 51.1425 180.033 52.2207 180.015 53.3125C180.035 54.3996 179.773 55.4734 179.256 56.4299C178.773 57.3291 178.06 58.0839 177.189 58.6171C176.285 59.1635 175.244 59.4425 174.188 59.4216H174.208ZM173.982 58.2098C174.84 58.2286 175.687 58.0112 176.43 57.5813C177.133 57.165 177.706 56.5608 178.084 55.8366C178.49 55.0489 178.694 54.1731 178.678 53.2874C178.694 52.4048 178.49 51.532 178.084 50.7482C177.702 50.034 177.134 49.4364 176.44 49.0185C175.71 48.5917 174.877 48.3742 174.032 48.39C173.215 48.3683 172.409 48.5782 171.707 48.9956C171.005 49.4129 170.436 50.0206 170.065 50.7482C169.687 51.5459 169.492 52.4174 169.492 53.2999C169.492 54.1824 169.687 55.0539 170.065 55.8517C170.428 56.5768 170.99 57.1837 171.686 57.6013C172.381 58.0188 173.181 58.2299 173.992 58.2098H173.982Z" fill="#231F20"/>
</g>
<defs>
<clipPath id="clip0_2001_76">
<rect width="180" height="64.3996" fill="white"/>
</clipPath>
</defs>
</svg>
