<?xml version="1.0" encoding="utf-8"?>
<!-- Generator: Adobe Illustrator 28.0.0, SVG Export Plug-In . SVG Version: 6.00 Build 0)  -->
<svg version="1.1" id="Layer_1" xmlns="http://www.w3.org/2000/svg" xmlns:xlink="http://www.w3.org/1999/xlink" x="0px" y="0px"
	 viewBox="0 0 33.14 33.14" style="enable-background:new 0 0 33.14 33.14;" xml:space="preserve">
<style type="text/css">
	.st0{fill:#57585A;}
	.st1{fill-rule:evenodd;clip-rule:evenodd;fill:#FFFFFF;}
</style>
<g>
	<circle class="st0" cx="16.57" cy="16.57" r="16.57"/>
	<g>
		<g>
			<path class="st1" d="M7.75,12.76c0.02-1.83,0.73-3.4,2.03-4.62c0.52-0.49,1.22-1.38,2-1.28c0.81,0.1,1.41,1.03,1.81,1.68
				c0.7,1.12,1.84,2.77,0.79,4.03c-0.51,0.6-1.29,0.92-1.74,1.56c-0.46,0.66-0.19,1.53,0.12,2.2c0.73,1.5,1.97,2.93,3.22,3.99
				c0.56,0.46,1.32,1.04,2.09,0.91c0.79-0.14,1.41-1.04,2-1.53c1.5-1.25,3.13,0.46,4.24,1.46c0.51,0.47,1.11,1.1,1.08,1.87
				c-0.04,0.78-1.02,1.42-1.56,1.88c-1.46,1.23-3.28,1.64-5.13,1.24c-1.99-0.43-3.66-1.65-5.15-3.01c-1.51-1.39-2.81-3.05-3.92-4.79
				c-0.52-0.81-0.97-1.67-1.3-2.58C7.99,14.77,7.87,13.8,7.75,12.76C7.76,11.75,7.81,13.3,7.75,12.76z"/>
		</g>
	</g>
</g>
</svg>
