<?xml version="1.0" encoding="utf-8"?>
<!-- Generator: Adobe Illustrator 28.0.0, SVG Export Plug-In . SVG Version: 6.00 Build 0)  -->
<svg version="1.1" id="Layer_1" xmlns="http://www.w3.org/2000/svg" xmlns:xlink="http://www.w3.org/1999/xlink" x="0px" y="0px"
	 viewBox="0 0 64.3 64.3" style="enable-background:new 0 0 64.3 64.3;" xml:space="preserve">
<style type="text/css">
	.st0{fill:#595A5C;}
</style>
<g>
	<path class="st0" d="M28.14,38.17l10.46-6.02l-10.46-6.02V38.17z"/>
	<path class="st0" d="M32.15,0C14.4,0,0,14.4,0,32.15S14.4,64.3,32.15,64.3S64.3,49.9,64.3,32.15S49.9,0,32.15,0z M52.24,32.18
		c0,0,0,6.52-0.83,9.66c-0.46,1.72-1.82,3.08-3.54,3.54c-3.14,0.83-15.72,0.83-15.72,0.83s-12.54,0-15.72-0.86
		c-1.72-0.46-3.08-1.82-3.54-3.54c-0.83-3.11-0.83-9.66-0.83-9.66s0-6.52,0.83-9.66c0.46-1.72,1.85-3.11,3.54-3.57
		c3.14-0.83,15.72-0.83,15.72-0.83s12.58,0,15.72,0.86c1.72,0.46,3.08,1.82,3.54,3.54C52.27,25.63,52.24,32.18,52.24,32.18z"/>
</g>
</svg>
