<?xml version="1.0" encoding="utf-8"?>
<!-- Generator: Adobe Illustrator 28.0.0, SVG Export Plug-In . SVG Version: 6.00 Build 0)  -->
<svg version="1.1" id="Layer_1" xmlns="http://www.w3.org/2000/svg" xmlns:xlink="http://www.w3.org/1999/xlink" x="0px" y="0px"
	 viewBox="0 0 527.6 168.2" style="enable-background:new 0 0 527.6 168.2;" xml:space="preserve">
<style type="text/css">
	.st0{fill:#231F20;}
	.st1{fill:#2491EB;}
	.st2{fill:#025FAE;}
</style>
<g>
	<g>
		<g>
			<g>
				<g>
					<path class="st0" d="M235.6,131.3l-3.3-8.4h-23.5l-3.4,8.4h-14.7l22.7-50.6h14.5l22.6,50.6H235.6z M227.5,111.4l-7-17.8
						l-7.2,17.8H227.5z"/>
				</g>
			</g>
			<path class="st0" d="M270.6,132.1c-6.2,0-11.1-1.7-14.7-5c-3.6-3.3-5.4-7.9-5.4-13.6c0-5.6,1.8-10.2,5.5-13.6
				c3.6-3.4,8.4-5.1,14.4-5.1c5.6,0,10.3,1.9,14.2,5.6l-7,7.7c-1.8-1.7-4-2.5-6.4-2.5c-2.3,0-4.1,0.7-5.5,2.1
				c-1.4,1.4-2.1,3.3-2.1,5.7c0,2.4,0.7,4.3,2.1,5.7c1.4,1.4,3.3,2.1,5.5,2.1c2.6,0,4.9-0.9,6.8-2.8l7.2,7.6
				C281,130.1,276.1,132.1,270.6,132.1z"/>
			<path class="st0" d="M316,95.6h11.4v35.7l-12.1-4.2c-3,3.3-6.8,4.9-11.4,4.9c-4.9,0-8.9-1.7-12.1-5.2c-3.1-3.5-4.7-7.9-4.7-13.4
				c0-5.4,1.6-9.9,4.7-13.4c3.1-3.5,7.2-5.2,12.1-5.2c4.6,0,8.4,1.6,11.4,4.8L316,95.6z M302.1,119.1c1.3,1.4,3,2.1,5.2,2.1
				c2.1,0,3.8-0.7,5.2-2.1c1.3-1.4,2-3.3,2-5.6c0-2.3-0.7-4.2-2-5.6c-1.3-1.4-3-2.1-5.2-2.1c-2.1,0-3.8,0.7-5.2,2.1
				c-1.3,1.4-2,3.3-2,5.6C300.1,115.8,300.8,117.7,302.1,119.1z"/>
			<path class="st0" d="M360.6,80.7h13.2v50.6l-12.1-4.2c-3,3.3-6.8,4.9-11.4,4.9c-4.9,0-8.9-1.7-12.1-5.2
				c-3.1-3.5-4.7-7.9-4.7-13.4c0-5.4,1.6-9.9,4.7-13.4c3.1-3.5,7.2-5.2,12.1-5.2c4.1,0,7.6,1.3,10.4,3.9V80.7z M348.4,119.1
				c1.3,1.4,3,2.1,5.2,2.1c2.1,0,3.8-0.7,5.2-2.1c1.3-1.4,2-3.3,2-5.6c0-2.3-0.7-4.2-2-5.6c-1.3-1.4-3-2.1-5.2-2.1
				c-2.1,0-3.8,0.7-5.2,2.1c-1.3,1.4-2,3.3-2,5.6C346.4,115.8,347.1,117.7,348.4,119.1z"/>
			<path class="st0" d="M399.3,94.8c6.8,0,11.9,2.1,15.4,6.3c3.5,4.2,4.6,9.5,3.3,16H393c0.4,1.4,1.3,2.6,2.7,3.5
				c1.4,0.9,3.2,1.3,5.5,1.3c3.5,0,6.6-0.9,9.3-2.7l6.4,7.2c-4.5,3.8-10,5.7-16.4,5.7c-6.5,0-11.5-1.7-15.2-5
				c-3.7-3.3-5.5-7.8-5.5-13.6c0-5.6,1.8-10.1,5.4-13.6S393.4,94.8,399.3,94.8z M399.8,104.8c-2,0-3.6,0.5-4.8,1.5
				c-1.2,1-1.9,2.4-1.9,4.2h13c0-1.8-0.6-3.2-1.7-4.2C403.2,105.3,401.7,104.8,399.8,104.8z"/>
			<path class="st0" d="M468.6,94.8c4.4,0,7.9,1.3,10.5,3.9c2.6,2.6,3.9,6.1,3.9,10.6v22.1h-13.2v-20.1c0-1.7-0.4-3.1-1.2-4.1
				c-0.8-1-1.9-1.5-3.4-1.5c-1.5,0-2.8,0.6-3.7,1.7c-0.9,1.1-1.4,2.7-1.4,4.6v19.4h-13v-20.1c0-1.7-0.4-3.1-1.2-4.1
				c-0.8-1-1.9-1.5-3.4-1.5c-1.5,0-2.8,0.6-3.7,1.7c-0.9,1.1-1.4,2.7-1.4,4.6v19.4h-13.2V95.6h11.4l0.7,3.8c2.7-3,6.1-4.6,10.2-4.6
				c4.5,0,7.9,1.8,10,5.3C459.4,96.6,463.4,94.8,468.6,94.8z"/>
			<path class="st0" d="M513.4,95.6h14.2l-22.1,50.6h-13.9l6.9-15.7l-13.8-34.9h14.1l3,8.5l4,12.3l4.2-12.3L513.4,95.6z"/>
		</g>
		<g>
			<path class="st1" d="M120.7,71.6c-5.3-5.7-12.1-8.5-20.4-8.5c-7.8,0-14.2,2.4-19.1,7.2V46.8c-2.5,0.6-4.8,1.3-7,2.3
				c-2.9,1.3-5.7,2.8-8.3,4.7c-0.1,0.1-0.3,0.2-0.4,0.3v70.7l14-8.4c4.9,5.6,12.3,7.7,20.8,7.7c8.3,0,15.2-2.8,20.4-8.5
				c5.3-5.7,7.9-13,7.9-22C128.6,84.6,125.9,77.3,120.7,71.6z M108.5,105.6c-3,3.1-6.8,4.7-11.4,4.7c-4.7,0-8.6-1.6-11.6-4.7
				c-3-3.1-4.5-7.2-4.5-12.1c0-4.9,1.5-8.9,4.5-12c3-3.1,6.8-4.7,11.6-4.7c4.6,0,8.5,1.6,11.4,4.7c3,3.2,4.5,7.2,4.5,12
				C113,98.4,111.5,102.5,108.5,105.6z"/>
			<g>
				<path class="st2" d="M164.8,120.9c-0.6,13.8-5.2,26.2-16.5,35.6C135,167.6,118.7,170,101.2,167C81.1,163.5,64,154.4,49,142.1
					c-22.8-18.7-38.8-41.4-45.9-68.6C-1.3,57-1.7,40.5,6.5,25C15.5,8.1,31,0,51.6,0c5,0,10.1,0.9,15.1,1.6c-3,1.3-6.3,0.6-9.4,1
					c-20,2.1-34.7,14.1-39.1,32c-2.4,9.7-2.4,19.4-0.5,29.2c7.3,38.6,42.9,77.9,83.3,88.4c17.4,4.5,34,3.9,48.4-7.1
					C157.6,138.8,162,130.3,164.8,120.9z"/>
				<path class="st1" d="M24.8,44.2c-0.2-18,13.3-39.1,40.5-39.7C73.9,4.3,82,6.1,90.3,8.7c25.2,7.9,42.6,24,56.6,43.6
					c9.2,12.8,15.2,27,16.9,42.3c1,9.1,0.8,18.2-2.8,26.9c-6.9,16.6-21.3,26.2-42.4,25.6c-3.7-0.1-7.3-0.6-11.1-1
					c0.9-1.3,2.1-1.1,3.4-1.1c11.5,0.1,21.7-3.4,29.2-11c6.1-6.2,9.1-14.1,10.1-22.7c1.7-14.7-2-28.6-9-41.8
					C130.6,49.6,115,33.7,93.3,23.2c-9.6-4.7-19.8-7.6-30.8-7.4c-18.6,0.4-31.9,10-37,26.7C25.4,43.1,25.6,43.8,24.8,44.2z"/>
			</g>
			<path class="st2" d="M90.7,32.5c-0.3,0.4-0.6,0.7-0.9,1.1c-0.2,0.2-0.3,0.4-0.5,0.6c-0.3,0.4-0.6,0.7-0.9,1.1
				c-0.1,0.1-0.2,0.3-0.3,0.4c-1,1.3-2.1,2.6-3.1,3.8c-0.3,0.4-0.3,0.7-0.1,1.1c0.2,0.5,0.4,0.9,0.6,1.4c0,0,0,0,0,0.1l0,0
				c0.1,0.3,0.2,0.6,0.4,0.8c-0.9,0.1-1.7,0.2-2.6,0.3c-0.4,0.1-0.9,0.2-1.3,0.2c-2.8,0.5-5.3,1.3-7.8,2.2c-2.4,1-4.6,2.1-6.8,3.5
				c-0.3,0.2-0.6,0.4-0.9,0.6c-1.5,1.1-3.1,2.2-4.6,3.6c-0.7,0.6-1.5,1.3-2.2,2l0,0c-0.3-0.5-0.5-1.1-0.7-1.6c0,0,0,0,0,0
				c-0.2-0.5-0.5-1-0.7-1.5c-0.1-0.2-0.3-0.4-0.5-0.4c-1.8-0.1-3.6-0.2-5.3-0.2l-0.4,0c-0.5,0-1,0-1.4-0.1c-0.3,0-0.6,0-1,0
				c0,0-0.1,0-0.2,0c0,0.2,0,0.4,0,0.6c0,0.2,0,0.4,0,0.6c0.1,2.4,0.1,4.8,0.2,7.1c0,0.1,0,0.2,0.1,0.4c0,0.1,0.1,0.2,0.1,0.2
				c0,0.1,0.1,0.2,0.2,0.3c0.3,0.4,0.3,0.9,0,1.2c-0.1,0.1-0.1,0.1-0.1,0.2c0,0.1,0,0.1-0.1,0.2c-0.1,0.2-0.1,0.5-0.1,0.7
				c0,0.1,0.1,0.2,0.1,0.4c0,0.1,0,0.1,0.1,0.2c0.2,0.4,0.4,0.7,0.6,1.1c0.1,0.2,0.3,0.5,0.4,0.8l-0.1,0c-0.3,0-0.6,0-0.9,0l0,0
				c-0.2,0-0.4,0-0.7,0c-0.5,0-0.9,0-1.4,0c0.3-0.6,0.5-1.1,0.7-1.6c0.1-0.4,0.2-0.8,0.2-1.2c0-0.2-0.1-0.4-0.2-0.5
				c-0.4-0.5-0.4-1,0-1.5c0.1-0.2,0.3-0.5,0.2-0.7c-0.1-2.6-0.1-5.2-0.2-7.8c0-0.5,0.1-0.9,0.5-1.3c5.5-5.6,11-11.1,16.6-16.7
				c0.3-0.3,0.6-0.4,1-0.4c5.9-0.3,11.7-0.6,17.5-1c2.1-0.1,4.2-0.2,6.2-0.4C90.3,32.5,90.4,32.5,90.7,32.5z"/>
		</g>
		<g>
			<g>
				<path class="st0" d="M270.7,12.4H284v51l-12.2-4.2c-3.1,3.3-6.9,5-11.5,5c-5,0-9-1.7-12.2-5.2c-3.2-3.5-4.7-8-4.7-13.5
					c0-5.5,1.6-10,4.7-13.5c3.2-3.5,7.2-5.2,12.2-5.2c4.2,0,7.7,1.3,10.5,3.9V12.4z M258.4,51.1c1.3,1.4,3.1,2.2,5.2,2.2
					c2.1,0,3.9-0.7,5.2-2.2c1.3-1.4,2-3.3,2-5.6c0-2.3-0.7-4.2-2-5.6c-1.3-1.4-3.1-2.2-5.2-2.2c-2.1,0-3.9,0.7-5.2,2.2
					c-1.3,1.4-2,3.3-2,5.6C256.4,47.8,257.1,49.7,258.4,51.1z"/>
				<path class="st0" d="M358.7,27.5h11.5v36L358,59.2c-3.1,3.3-6.9,5-11.5,5c-5,0-9-1.7-12.2-5.2c-3.2-3.5-4.7-8-4.7-13.5
					c0-5.5,1.6-10,4.7-13.5c3.2-3.5,7.2-5.2,12.2-5.2c4.6,0,8.5,1.6,11.5,4.9L358.7,27.5z M344.7,51.1c1.3,1.4,3.1,2.2,5.2,2.2
					c2.1,0,3.9-0.7,5.2-2.2c1.3-1.4,2-3.3,2-5.6c0-2.3-0.7-4.2-2-5.6c-1.3-1.4-3.1-2.2-5.2-2.2c-2.1,0-3.9,0.7-5.2,2.2
					c-1.3,1.4-2,3.3-2,5.6C342.7,47.8,343.3,49.7,344.7,51.1z"/>
				<path class="st0" d="M378.1,63.5v-51h13.3v51H378.1z"/>
				<path class="st0" d="M399.2,63.5v-51h13.3v51H399.2z"/>
				<path class="st0" d="M427,24.9c-2.2,0-4-0.6-5.4-1.9c-1.4-1.3-2.1-2.9-2.1-4.9c0-2,0.7-3.7,2.1-5c1.4-1.3,3.2-1.9,5.4-1.9
					c2.2,0,4.1,0.6,5.5,1.9c1.4,1.3,2.1,3,2.1,5c0,2-0.7,3.6-2.1,4.9C431.1,24.3,429.2,24.9,427,24.9z M420.4,63.5v-36h13.3v36
					H420.4z"/>
				<path class="st0" d="M465.1,26.7c4.4,0,7.8,1.4,10.4,4.3c2.6,2.8,3.8,6.8,3.8,11.9v20.6h-13.3V43.6c0-1.8-0.5-3.3-1.4-4.4
					c-0.9-1.1-2.2-1.6-3.9-1.6c-1.8,0-3.3,0.6-4.4,1.9c-1.1,1.3-1.7,2.9-1.7,5v19h-13.3v-36H453l0.7,4.2
					C456.6,28.3,460.4,26.7,465.1,26.7z"/>
				<path class="st0" d="M518.1,56.8c4.7,2.5,7.1,6.4,7.1,11.5c0,4.7-1.8,8.4-5.5,11.2c-3.7,2.8-8.6,4.2-14.8,4.2
					c-6.4,0-11.4-1.6-15-4.9c-3.6-3.3-5-7.5-4.4-12.8h12.6c-0.1,4.6,2.1,6.9,6.8,6.9c1.9,0,3.5-0.5,4.8-1.4c1.2-0.9,1.9-2.2,1.9-3.8
					c0-3.2-2.2-4.8-6.5-4.8c-6.1,0-10.9-1.7-14.6-5c-3.6-3.3-5.5-7.8-5.5-13.4c0-5.3,1.9-9.7,5.6-13.1c3.7-3.4,8.6-5.1,14.4-5.1
					c2.5,0,5,0.5,7.4,1.5l3.9-5.1l9.7,6.9l-4.7,5.5c2.2,2.5,3.4,5.6,3.4,9.3C524.7,49.5,522.5,53.6,518.1,56.8z M499.9,49.8
					c1.3,1.3,2.9,2,5,2c2.1,0,3.8-0.7,5-2c1.3-1.3,1.9-3.1,1.9-5.3c0-2.2-0.6-3.9-1.9-5.3c-1.3-1.3-2.9-2-5-2c-2.1,0-3.8,0.7-5,2
					c-1.3,1.3-1.9,3.1-1.9,5.3C498,46.7,498.6,48.5,499.9,49.8z"/>
			</g>
			<path class="st0" d="M217.1,12.4c10.4,0,18.8,4.6,18.8,14.5c0,3.9-1.2,8-5.7,10.1c4.8,2.6,7.2,7.4,7.2,12.1
				c0,11.6-10.6,15.1-20,15.2h-26.7V12.4H217.1z M205,32.2h11.7c3,0,4.7-1.6,4.7-3.8c0-2.3-1.6-4.1-4.5-4.1H205V32.2z M205,52.8
				h12.3c3.7,0,5.5-2,5.5-4.9c0-2.8-1.8-5-5.5-5H205V52.8z"/>
			<path class="st0" d="M326.1,58.1c-4.3,3.9-9.5,6.1-14.8,6.1c-10.5,0-20.4-5.2-20.4-18.6c0-13.1,10-18.8,20.2-18.8
				c5.2,0,10.3,1.8,14.1,5.6L318,40c-1.7-1.8-3.8-2.6-6.2-2.6c-5.1,0-7.9,3.7-7.9,8.2c0,3.9,2.7,7.4,7.8,7.4c2.5,0,4.9-1,6.7-3
				L326.1,58.1z"/>
		</g>
	</g>
</g>
</svg>
