<?xml version="1.0" encoding="utf-8"?>
<!-- Generator: Adobe Illustrator 28.0.0, SVG Export Plug-In . SVG Version: 6.00 Build 0)  -->
<svg version="1.1" id="Layer_1" xmlns="http://www.w3.org/2000/svg" xmlns:xlink="http://www.w3.org/1999/xlink" x="0px" y="0px"
	 viewBox="0 0 821.4 166.6" style="enable-background:new 0 0 821.4 166.6;" xml:space="preserve">
<style type="text/css">
	.st0{fill:#111111;}
	.st1{fill:none;}
	.st2{fill:#729DF2;}
</style>
<g>
	<g>
		<g>
			<g>
				<path class="st0" d="M65.2,133.2c-18.9,0-34.4-6.3-46.7-18.8C6.1,101.9,0,86.4,0,68c0-18.5,6.1-34,18.4-46.5
					C30.7,9.1,46.3,2.9,65.2,2.9c11.3,0,21.8,2.7,31.4,8c8.7,4.8,15.7,11.2,20.9,19.1c0.9,1.3,0.4,3.1-0.9,3.9L97.8,44.8
					c-3.1-5.6-7.5-10-13.2-13.2c-5.7-3.2-12.2-4.7-19.3-4.7c-12.2,0-22,3.8-29.5,11.5C28.3,46,24.5,55.9,24.5,68
					c0,12.1,3.7,21.9,11.2,29.5C43.2,105.2,53,109,65.2,109c7.2,0,13.6-1.6,19.4-4.7c5.8-3.2,10.2-7.5,13.2-13l18.9,10.9
					c1.4,0.8,1.8,2.6,0.9,3.9c-5.2,7.9-12.2,14.3-20.8,19.1C87.1,130.5,76.6,133.2,65.2,133.2z"/>
				<path class="st0" d="M134.6,128V2.7c0-1.5,1.2-2.7,2.7-2.7H155c1.5,0,2.7,1.2,2.7,2.7V128c0,1.5-1.2,2.7-2.7,2.7h-17.6
					C135.9,130.7,134.6,129.5,134.6,128z"/>
				<path class="st0" d="M351.3,41.2h18.8c1.9,0,3.2,1.9,2.6,3.7l-31.3,86c-4.7,12.8-10.8,22.1-18.5,27.9c-7.1,5.3-15.7,8-26,7.9
					c-1.5,0-2.7-1.2-2.7-2.7V145c6.2,0.1,11.1-1.2,14.8-3.9c3.4-2.6,6.2-6.7,8.3-12.2c0.2-0.7,0.2-1.4,0-2L282.5,45
					c-0.8-1.8,0.6-3.8,2.5-3.8h19.2c1.1,0,2.1,0.7,2.6,1.7l19.9,51.3c0.9,2.4,4.3,2.3,5.2-0.1l16.8-51
					C349,41.9,350.1,41.2,351.3,41.2z"/>
				<path class="st0" d="M400.7,66.6c0,2.4,1.6,4.3,4.7,5.8c3.2,1.5,7,2.8,11.5,3.9c4.5,1.1,9.1,2.6,13.6,4.3
					c4.5,1.7,8.4,4.6,11.5,8.7c3.2,4.1,4.7,9.1,4.7,15.2c0,9.2-3.4,16.3-10.3,21.2c-6.9,5-15.4,7.4-25.7,7.4
					c-17.3,0-29.4-6.3-36.4-18.9c-0.7-1.3-0.2-2.9,1.1-3.7l15.1-8.5c1.4-0.8,3.1-0.2,3.8,1.2c3,5.9,8.5,8.9,16.4,8.9
					c8.2,0,12.4-2.6,12.4-7.7c0-2.4-1.6-4.3-4.7-5.8c-3.2-1.5-7-2.8-11.5-4c-4.5-1.2-9.1-2.7-13.6-4.5c-4.5-1.8-8.4-4.6-11.5-8.5
					c-3.2-3.9-4.7-8.7-4.7-14.6c0-8.8,3.3-15.8,9.8-20.9c6.5-5.1,14.6-7.6,24.3-7.6c7.3,0,13.9,1.6,19.9,4.9
					c5.1,2.8,9.3,6.7,12.6,11.6c0.9,1.3,0.4,3.1-1,3.9l-14.8,8.1c-1.3,0.7-2.8,0.3-3.6-1c-2.9-4.6-7.3-6.9-13.1-6.9
					c-3,0-5.5,0.7-7.4,2C401.7,62.5,400.7,64.3,400.7,66.6z"/>
				<path class="st0" d="M507.5,63.4h-14.8c-1.5,0-2.7,1.2-2.7,2.7v34.5c0,3.1,0.8,5.4,2.3,6.8c1.5,1.4,3.8,2.2,6.8,2.4
					c2.3,0.1,5.1,0.2,8.3,0c1.5-0.1,2.8,1.2,2.8,2.7v18.1c-15.9,1.8-27.1,0.3-33.6-4.5c-6.5-4.8-9.8-13.3-9.8-25.6V66.1
					c0-1.5-1.2-2.7-2.7-2.7h-10.1c-1.5,0-2.7-1.2-2.7-2.7V43.9c0-1.5,1.2-2.7,2.7-2.7h10.1c1.5,0,2.7-1.2,2.7-2.7V25.1
					c0-1.2,0.8-2.3,1.9-2.6v0c10.5-3.2,21.2,4.7,21.2,15.7v0.2c0,1.5,1.2,2.7,2.7,2.7h14.8c1.5,0,2.7,1.2,2.7,2.7v16.7
					C510.3,62.2,509,63.4,507.5,63.4z"/>
				<path class="st0" d="M600.1,119.5c-9.2,9.1-20.4,13.7-33.7,13.7c-13.2,0-24.4-4.6-33.6-13.7c-9.1-9.1-13.7-20.3-13.7-33.6
					s4.6-24.4,13.7-33.6c9.1-9.1,20.3-13.7,33.6-13.7c13.2,0,24.5,4.6,33.7,13.7c9.2,9.1,13.8,20.3,13.8,33.6
					S609.3,110.4,600.1,119.5z M549.2,103.7c4.6,4.7,10.4,7,17.3,7c6.9,0,12.7-2.3,17.4-7c4.7-4.7,7-10.6,7-17.7s-2.3-13.1-7-17.7
					c-4.7-4.7-10.4-7-17.4-7c-6.9,0-12.7,2.3-17.3,7c-4.6,4.7-6.9,10.6-6.9,17.7S544.6,99,549.2,103.7z"/>
				<path class="st0" d="M680,38.7c9.8,0,17.9,3.3,24.3,9.8c6.4,6.6,9.6,15.6,9.6,27.2V128c0,1.5-1.2,2.7-2.7,2.7h-20.4V78.6
					c0-6-1.6-10.5-4.8-13.7c-3.2-3.2-7.5-4.7-12.9-4.7c-6,0-10.7,1.9-14.3,5.5c-3.6,3.7-5.4,9.3-5.4,16.7v48.3h-20.4
					c-1.5,0-2.7-1.2-2.7-2.7v-84c0-1.5,1.2-2.7,2.7-2.7h17.6c1.5,0,2.7,1.2,2.7,2.7v0c0,2.4,2.8,3.6,4.6,2
					C663.3,41.1,670.7,38.7,680,38.7z"/>
				<path class="st0" d="M756.9,95.4c-2,0-3.3,2.1-2.5,3.9c3.9,8.6,11.8,13,23.9,13c8.8,0,15.5-3,20.1-9l16,9.2
					c1.4,0.8,1.8,2.7,0.8,4c-8.8,11.1-21.2,16.6-37.2,16.6c-14.8,0-26.7-4.5-35.6-13.4c-9-9-13.4-20.2-13.4-33.8
					c0-13.5,4.4-24.7,13.2-33.7c8.8-9,20.2-13.5,34-13.5c13.1,0,24,4.5,32.5,13.6c8.5,9.1,12.8,20.3,12.8,33.7
					c0,2.3-0.2,4.6-0.5,7.1c-0.2,1.4-1.4,2.4-2.7,2.4L756.9,95.4z M756.3,77.5l38.4,0c1.9,0,3.2-1.8,2.6-3.6
					c-1.5-4.3-3.9-7.6-7.1-10c-4.1-3-8.8-4.5-14.1-4.5c-6.2,0-11.3,1.6-15.4,4.7c-3.1,2.4-5.4,5.6-6.9,9.6
					C753.1,75.6,754.4,77.5,756.3,77.5z"/>
			</g>
		</g>
	</g>
	<g>
		<path class="st1" d="M221,59.7c-7.2,0-13.1,2.4-17.7,7.1c-4.7,4.7-7,10.8-7,18.2c0,6.2,1.6,11.4,4.9,15.7l37.7-33.9c0,0,0,0,0,0
			C234.1,62,228.1,59.7,221,59.7z"/>
		<path class="st1" d="M203.3,103.1c4.7,4.7,10.6,7.1,17.7,7.1c7.2,0,13.1-2.4,17.8-7.1c4.7-4.7,7.1-10.8,7.1-18.2
			c0-7.4-2.4-13.4-7-18.1l-37.7,33.9C201.8,101.5,202.5,102.3,203.3,103.1z"/>
		<path class="st0" d="M178.3,117.7c2-2.3,2.3-5.7,0.7-8.3c-0.5-0.9-1-1.6-1.2-2c-3.7-6.9-5.6-14.8-5.6-23.5
			c0-13.2,4.3-24.4,12.8-33.6c8.5-9.1,18.8-13.7,30.7-13.7c10,0,18.3,2.8,24.7,8.4c1.8,1.5,4.5,0.2,4.5-2.1v-1
			c0-1.5,1.2-2.7,2.7-2.7h17.6c0.6,0,1.2,0.2,1.6,0.5l-29,26.1c0,0,0,0,0,0c-4.7-4.7-10.7-7.1-17.8-7.1c-7.2,0-13.1,2.4-17.7,7.1
			c-4.7,4.7-7,10.8-7,18.2c0,6.2,1.6,11.4,4.9,15.7l-17.2,15.5l-19.1,19.1L178.3,117.7z"/>
		<path class="st2" d="M267.8,40.7l-29,26.1c4.7,4.7,7,10.8,7,18.1c0,7.4-2.4,13.5-7.1,18.2c-4.7,4.7-10.7,7.1-17.8,7.1
			c-7.2,0-13.1-2.4-17.7-7.1c-0.8-0.8-1.5-1.6-2.1-2.5l-17.2,15.5c0.7,0.8,1.3,1.6,2.1,2.4c8.5,9.1,18.8,13.7,30.7,13.7
			c10,0,18.3-2.8,24.7-8.4c1.8-1.5,4.5-0.2,4.5,2.1v1c0,1.5,1.2,2.7,2.7,2.7h17.6c1.5,0,2.7-1.2,2.7-2.7V45.4c0-1.6,0.6-3.1,1.6-4.3
			l22.8-25.6L267.8,40.7z"/>
	</g>
</g>
</svg>
