<?xml version="1.0" encoding="utf-8"?>
<!-- Generator: Adobe Illustrator 28.0.0, SVG Export Plug-In . SVG Version: 6.00 Build 0)  -->
<svg version="1.1" id="Layer_1" xmlns="http://www.w3.org/2000/svg" xmlns:xlink="http://www.w3.org/1999/xlink" x="0px" y="0px"
	 viewBox="0 0 459.2 183" style="enable-background:new 0 0 459.2 183;" xml:space="preserve">
<style type="text/css">
	.st0{fill:#0043F8;}
	.st1{fill:#040718;}
</style>
<g>
	<g>
		<g>
			<g>
				<polygon class="st0" points="136.9,0.5 136.9,137.4 91.3,183 91.3,183 91.3,183 0,183 0,91.8 45.6,91.8 45.6,137.4 91.3,137.4 
					91.3,0.5 				"/>
				<polygon class="st0" points="45.6,46.1 0,46.1 0,0.5 				"/>
				<polygon class="st0" points="91.3,91.8 45.6,91.8 45.6,46.1 				"/>
			</g>
		</g>
	</g>
	<polygon class="st1" points="431.9,41.4 431.9,45.9 431.9,129.5 431.9,136.9 452.7,136.9 452.7,129.5 452.7,45.9 452.7,41.4 	"/>
	<path class="st0" d="M442.5,0L441,6.4c-1,4.3-4.4,7.7-8.8,8.8l-6.4,1.5l6.4,1.5c4.3,1,7.7,4.4,8.8,8.8l1.5,6.4L444,27
		c1-4.3,4.4-7.7,8.8-8.8l6.4-1.5l-6.4-1.5c-4.3-1-7.7-4.4-8.8-8.8L442.5,0z"/>
	<path class="st1" d="M371.7,41.4c-23.3,0-36.2,11.1-39.8,28.4l19.8,4.5c2.3-10.7,8.7-16.1,19.2-16.1c12.6,0,17.7,6.8,17.7,18.7V83
		h-27.2c-23.1,0-33,11.9-33,28.2c0,17.9,11.5,25.7,27.8,25.7c16.1,0,26.8-8.9,31.5-23.7h1.9v21.8v1.9h19.8v-1.9V76.6
		C409.4,54.1,398.1,41.4,371.7,41.4z M388.6,100.5c0,11.5-9.7,20-24.3,20c-11.9,0-15.9-5.8-15.9-12.3c0-7.6,5.8-11.5,16.5-11.5h23.7
		V100.5z"/>
	<g>
		<path class="st1" d="M199.2,106.2c0,7.8-2.5,12.8-9.7,12.8c-2.1,0-4.5-0.2-7-0.8l0,0.2v18.1c2.3,0.5,4.9,0.8,7.8,0.8
			c21.2,0,29.7-13.2,29.7-33.6V41.4h-20.8V106.2z"/>
		<path class="st1" d="M305.5,41.4l-1.3,4.1l-11.3,35.4c-3.9,12.6-8.1,25.6-11.8,37.9l0,0.1h-3.9c-3.7-12.4-7.8-25.1-11.9-38.1
			l-11.3-35.4l-1.3-4.1h-23l1.5,4.1l33.8,91.4h27.6l33.6-91.4l1.5-4.1H305.5z"/>
	</g>
</g>
</svg>
