<?xml version="1.0" encoding="utf-8"?>
<!-- Generator: Adobe Illustrator 28.0.0, SVG Export Plug-In . SVG Version: 6.00 Build 0)  -->
<svg version="1.1" id="Layer_1" xmlns="http://www.w3.org/2000/svg" xmlns:xlink="http://www.w3.org/1999/xlink" x="0px" y="0px"
	 viewBox="0 0 626.9 158.8" style="enable-background:new 0 0 626.9 158.8;" xml:space="preserve">
<style type="text/css">
	.st0{fill:#F1F1F1;}
	.st1{fill:#383838;}
	.st2{fill:#00B22D;}
	.st3{fill:#FFC300;}
	.st4{fill:none;}
</style>
<g>
	<path class="st0" d="M561.2,50.1v14.5L593,50.1H561.2z M618.6,56.4c-3.8-2.9-8.5-4.8-14.2-5.6l-43.2,19.7v58.5h20.6v-26.3h17.4
		c8.5,0,15.2-2.2,20.3-6.5c5-4.3,7.5-10.8,7.5-19.4C626.9,67.4,624.2,60.6,618.6,56.4z M606,82.3c-0.7,1.4-1.8,2.3-3.2,2.9
		c-1.4,0.6-2.8,1-4.1,1.2c-1.3,0.2-3.1,0.3-5.2,0.3h-11.6V66.9h13.3c3.8,0,6.8,0.8,8.9,2.3c2,1.5,3.1,4.1,3.1,7.7
		C607,79.1,606.7,80.9,606,82.3z"/>
	<polygon class="st1" points="593,50.1 561.2,64.6 561.2,50.1 	"/>
	<polygon class="st2" points="593,50.1 561.2,64.6 561.2,50.1 	"/>
	<path class="st3" d="M63.4,0c-0.1,0-0.3,0-0.4,0C51.7,0,41.6,5.4,35.4,13.8c-4.3,5.7-6.8,12.8-6.8,20.6c0,19,15.4,34.4,34.4,34.4
		c19,0,34.4-15.4,34.4-34.4C97.4,15.5,82.2,0.2,63.4,0z"/>
	<path class="st2" d="M8.6,40.2C3.1,51.4,0,64,0,77.4c0,39.2,26.7,72.1,63,81.5V89C34.7,89,11.5,67.7,8.6,40.2z"/>
	<path class="st0" d="M171.6,85.7c-4.8-2.2-14.1-5.1-27.8-8.7c-2.3-0.6-3.9-1.3-4.7-2.2c-0.8-0.9-1.3-2.1-1.3-3.8
		c0-2.1,0.9-3.7,2.8-4.9c1.9-1.2,4.4-1.8,7.6-1.8c8.1,0,12.4,3.2,12.8,9.6h19.6c-0.1-8.2-2.9-14.5-8.2-18.8
		c-5.3-4.4-12.9-6.5-22.7-6.5c-9.7,0-17.5,2.2-23.2,6.6c-5.7,4.4-8.6,10.3-8.6,17.8c0,9.4,5.1,15.9,15.4,19.6
		c5.5,2.1,12,4.1,19.5,6.2c3.9,1,6.6,2.2,8.1,3.4c1.5,1.2,2.3,2.9,2.3,5c0,5.3-3.9,8-11.7,8c-10.6,0-15.8-4.2-15.8-12.5h-20.7
		c0.2,8.9,3.3,15.9,9.5,20.8c6.2,4.9,14.8,7.4,25.7,7.4c10.3,0,18.5-2.3,24.6-7c6.1-4.7,9.1-11,9.1-18.9
		C183.8,95.9,179.8,89.5,171.6,85.7z"/>
	<path class="st0" d="M228.3,113.3c-5.6,0-10.1-2.1-13.4-6.4c-3.4-4.3-5-10-5-17.2c0-7.4,1.7-13.3,5-17.7c3.4-4.4,7.8-6.6,13.4-6.6
		c8.6,0,13.8,4.1,15.6,12.4h20.2c-0.7-9-4.4-16.2-11.3-21.6c-6.9-5.4-14.9-8.1-24.1-8.1c-11.7,0-21.3,3.8-28.7,11.5
		c-7.4,7.6-11.1,17.5-11.1,29.6c0,12.1,3.6,22,10.7,29.8c7.1,7.8,16.7,11.7,28.7,11.7c15.6,0,26.4-6.2,32.5-18.7
		c1.4-2.8,2.3-5.1,2.8-6.8c0.5-1.7,0.8-4.1,0.8-7.1h-20.5C242.7,108.3,237.4,113.3,228.3,113.3z"/>
	<path class="st0" d="M315.5,50h-20.8l-29.5,78.9h21l5.2-14.4h27.2l5.1,14.4H345L315.5,50z M296.1,99.7l9.1-27.6l8.9,27.6H296.1z"/>
	<polygon class="st0" points="369.7,50.1 349,50.1 349,128.9 406.4,128.9 406.4,111.2 369.7,111.2 	"/>
	<polygon class="st0" points="434.9,96.3 473.8,96.3 473.8,80.3 434.9,80.3 434.9,66.7 477.5,66.7 477.5,50.1 414.4,50.1 
		414.4,128.9 478.5,128.9 478.5,111.7 434.9,111.7 	"/>
	<path class="st0" d="M563.6,56.8L563.6,56.8C563.6,56.8,563.6,56.8,563.6,56.8L563.6,56.8z"/>
	<path class="st0" d="M496.2,122.3c5.5,5,13.4,7.7,23.8,8c-10.8-0.3-18.8-2.9-24.1-8c-4.9-4.7-7.7-11.7-8.2-21
		C488.3,110.6,491.1,117.6,496.2,122.3z"/>
	<path class="st3" d="M517.1,112.9c1.1,0.3,2.2,0.4,3.5,0.5C519.3,113.3,518.2,113.2,517.1,112.9z"/>
	<path class="st0" d="M535.1,103.4c-0.5,2.4-1.4,4.5-2.6,6c-1.3,1.6-3,2.7-5.3,3.3C531.4,111.5,534,108.4,535.1,103.4z"/>
	<path class="st0" d="M535.1,103.4c0.2-0.8,0.3-1.7,0.4-2.6C535.4,101.7,535.3,102.6,535.1,103.4z"/>
	<path class="st0" d="M535.6,97.8c0,1,0,2-0.1,2.9C535.6,99.8,535.6,98.8,535.6,97.8"/>
	<path class="st0" d="M508.4,100.7c-0.1-0.9-0.1-1.9-0.1-2.9V57.6c0,0.2,0,0.5,0,0.7v39.5C508.3,98.8,508.3,99.8,508.4,100.7z"/>
	<path class="st0" d="M516.7,112.8c-2.3-0.6-4.1-1.7-5.3-3.3c-1.3-1.6-2.2-3.8-2.7-6.3C509.7,108.3,512.4,111.5,516.7,112.8z"/>
	<path class="st0" d="M508.4,100.8c0.1,0.8,0.2,1.6,0.3,2.3C508.6,102.4,508.5,101.6,508.4,100.8z"/>
	<path class="st3" d="M526.7,112.9c-1.1,0.3-2.2,0.5-3.5,0.5C524.5,113.3,525.7,113.1,526.7,112.9z"/>
	<path class="st3" d="M523.9,130.3c1.3,0,2.6-0.1,3.8-0.2C526.4,130.2,525.2,130.3,523.9,130.3z"/>
	<path class="st0" d="M556.2,101.4c-0.6,9.3-3.3,16.3-8.2,21c-4.6,4.5-11.4,7.1-20.3,7.8c8.5-0.8,15.2-3.4,20-7.8
		C552.7,117.6,555.6,110.6,556.2,101.4z"/>
	<path class="st3" d="M556.3,50.1v47.3c0,0.7,0,1.4,0,2.1c0,0.6-0.1,1.3-0.1,1.9c-0.6,9.3-3.5,16.3-8.6,21c-0.3,0.3-0.7,0.6-1.1,0.9
		c-0.4,0.3-0.7,0.6-1.1,0.9c-0.4,0.3-0.8,0.5-1.2,0.8c-0.4,0.3-0.8,0.5-1.2,0.8c-0.3,0.2-0.6,0.3-0.8,0.5c-0.2,0.1-0.5,0.3-0.7,0.4
		c-0.4,0.2-0.7,0.3-1.1,0.5c-0.5,0.2-0.9,0.4-1.4,0.6c0,0,0,0,0,0c-0.5,0.2-0.9,0.4-1.4,0.5c-0.5,0.2-1,0.3-1.5,0.5
		c-0.5,0.1-1,0.3-1.6,0.4c-1.3,0.3-2.7,0.6-4.1,0.8c-0.1,0-0.2,0-0.3,0c-0.8,0.1-1.6,0.2-2.4,0.3c-0.6,0.1-1.2,0.1-1.9,0.1
		c-0.6,0-1.3,0.1-1.9,0.1c-0.7,0-1.4,0-2.1,0c-0.6,0-1.2,0-1.8,0c-0.6,0-1.3-0.1-1.9-0.1c-3.1-0.2-6-0.6-8.7-1.3
		c-0.5-0.1-1.1-0.3-1.6-0.4c-0.5-0.2-1-0.3-1.5-0.5c-0.5-0.2-1-0.3-1.5-0.5c-0.8-0.3-1.6-0.7-2.4-1.1c-0.5-0.3-1.1-0.6-1.6-0.9
		c-0.4-0.3-0.8-0.5-1.2-0.8c-0.4-0.3-0.8-0.5-1.2-0.8c-0.4-0.3-0.8-0.6-1.1-0.9c-0.4-0.3-0.7-0.6-1.1-0.9c-5.1-4.7-7.9-11.7-8.6-21
		c0-0.6-0.1-1.3-0.1-1.9c0-0.7,0-1.4,0-2.1V50.1h20.7v47.7c0,1,0,2,0.1,2.9v0.1c0.1,0.7,0.2,1.4,0.3,2.1c0.1,0.4,0.1,0.8,0.2,1.1
		c0.1,0.4,0.2,0.8,0.3,1.1c0.1,0.3,0.2,0.5,0.2,0.7c0.3,0.6,0.5,1.3,0.8,1.8c0.2,0.3,0.3,0.6,0.5,0.9c0.2,0.3,0.4,0.6,0.6,0.8
		c1.3,1.6,3,2.7,5.3,3.3c0.1,0,0.2,0.1,0.4,0.1c1.1,0.3,2.2,0.5,3.5,0.5c0.4,0,0.9,0,1.3,0h0.3c0.4,0,0.7,0,1,0
		c1.3-0.1,2.4-0.2,3.5-0.5c0.1,0,0.3-0.1,0.4-0.1c2.3-0.6,4.1-1.7,5.3-3.3c0.2-0.3,0.4-0.6,0.6-0.8c0.2-0.3,0.4-0.6,0.5-0.9
		c0.3-0.6,0.6-1.2,0.8-1.8c0.1-0.2,0.2-0.5,0.2-0.7c0.1-0.4,0.2-0.8,0.3-1.1c0-0.2,0.1-0.4,0.1-0.6c0-0.2,0.1-0.3,0.1-0.5
		c0.1-0.7,0.2-1.4,0.3-2.1c0,0,0,0,0-0.1c0.1-0.9,0.1-1.9,0.1-2.9V70l19-19.9H556.3z"/>
	<path class="st0" d="M535.6,97.8c0,1,0,2-0.1,2.9C535.6,99.8,535.6,98.8,535.6,97.8"/>
	<line class="st1" x1="535.6" y1="70" x2="535.1" y2="70.5"/>
	<path class="st4" d="M508.2,50.1"/>
</g>
</svg>
