<?xml version="1.0" encoding="utf-8"?>
<!-- Generator: Adobe Illustrator 28.0.0, SVG Export Plug-In . SVG Version: 6.00 Build 0)  -->
<svg version="1.1" id="Layer_1" xmlns="http://www.w3.org/2000/svg" xmlns:xlink="http://www.w3.org/1999/xlink" x="0px" y="0px"
	 viewBox="0 0 796 149.9" style="enable-background:new 0 0 796 149.9;" xml:space="preserve">
<style type="text/css">
	.st0{fill:#14C99E;}
	.st1{fill:#FFDE00;}
</style>
<g>
	<g>
		<path class="st0" d="M218.9,62.5h-18.1V51.9h49.2v10.7H232v45.8h-13.1V62.5z"/>
		<path class="st0" d="M300.8,97.9v10.5h-43.8V51.9h42.7v10.5h-29.7v12.3h26.2v10.2h-26.2v13.1H300.8z"/>
		<path class="st0" d="M307.5,80.1c0-17,13.1-29.2,30.7-29.2c9.8,0,17.9,3.6,23.2,10l-8.4,7.7c-3.8-4.4-8.6-6.6-14.2-6.6
			c-10.6,0-18.1,7.4-18.1,18.1c0,10.7,7.5,18.1,18.1,18.1c5.7,0,10.4-2.3,14.2-6.7l8.4,7.7c-5.3,6.5-13.5,10.1-23.3,10.1
			C320.6,109.4,307.5,97.2,307.5,80.1z"/>
		<path class="st0" d="M422.1,51.9v56.5H409V85.2h-25.7v23.2h-13.1V51.9h13.1v22.3H409V51.9H422.1z"/>
		<path class="st0" d="M487.3,51.9v56.5h-10.7l-28.2-34.3v34.3h-12.9V51.9h10.8l28.1,34.3V51.9H487.3z"/>
		<path class="st0" d="M497.1,80.1c0-16.8,13.1-29.2,30.9-29.2c17.8,0,30.9,12.4,30.9,29.2s-13.2,29.2-30.9,29.2
			C510.2,109.4,497.1,96.9,497.1,80.1z M545.7,80.1c0-10.7-7.6-18.1-17.7-18.1c-10.1,0-17.7,7.3-17.7,18.1
			c0,10.7,7.6,18.1,17.7,18.1C538.1,98.2,545.7,90.9,545.7,80.1z"/>
		<path class="st0" d="M568.8,51.9h13.1v45.8h28.3v10.7h-41.4V51.9z"/>
		<path class="st0" d="M613,80.1c0-16.8,13.1-29.2,30.9-29.2c17.8,0,30.9,12.4,30.9,29.2s-13.2,29.2-30.9,29.2
			C626.1,109.4,613,96.9,613,80.1z M661.6,80.1c0-10.7-7.6-18.1-17.7-18.1c-10.1,0-17.7,7.3-17.7,18.1c0,10.7,7.6,18.1,17.7,18.1
			C654,98.2,661.6,90.9,661.6,80.1z"/>
		<path class="st0" d="M722.9,79.3h11.9v22.9c-6.2,4.7-14.8,7.2-22.8,7.2c-17.8,0-30.8-12.2-30.8-29.2c0-17,13.1-29.2,31.1-29.2
			c9.9,0,18.2,3.4,23.7,9.8l-8.4,7.7c-4.1-4.4-8.9-6.4-14.6-6.4c-11,0-18.5,7.3-18.5,18.1c0,10.6,7.5,18.1,18.3,18.1
			c3.6,0,6.9-0.6,10.2-2.4V79.3z"/>
		<path class="st0" d="M774,88.4v20H761V88.2l-21.9-36.3H753L768.1,77l15.1-25.1H796L774,88.4z"/>
	</g>
	<g>
		<path id="XMLID_00000001653204493950916040000014536037951874483877_" class="st0" d="M72.8,78.4c-4.9-3.7-12.2-6.2-22.1-7.3
			c-5.1-0.6-8.8-1.5-11-2.8c-2.2-1.2-3.3-3-3.3-5.2c0-2.4,1.3-4.2,3.8-5.6c2.5-1.4,5.9-2.1,10.1-2.1c6.9,0,13.1,2,18.8,5.9l8-11.8
			c-3.7-2.6-7.9-4.6-12.7-6.1c-4.8-1.4-9.8-2.2-14.8-2.2c-5.9,0-11.1,0.9-15.6,2.8c-4.5,1.8-8,4.5-10.5,7.8
			c-2.5,3.4-3.7,7.3-3.7,11.6c0,6.5,2.3,11.5,6.9,15c4.6,3.5,11.9,5.8,21.8,6.9c5.1,0.5,8.9,1.5,11.2,2.8c2.4,1.3,3.5,3.1,3.5,5.5
			c0,2.5-1.3,4.4-3.8,5.9c-2.5,1.4-5.9,2.2-10.2,2.2c-8.6,0-16.1-2.5-22.6-7.5l-8.8,12.3c4,3.2,8.8,5.7,14.3,7.5
			c5.5,1.8,11.3,2.7,17.2,2.7c6,0,11.4-0.9,16-2.8c4.6-1.9,8.3-4.6,10.8-8.1c2.6-3.5,3.9-7.5,3.9-12C80.1,87.3,77.7,82.1,72.8,78.4z
			"/>
		<path id="XMLID_00000135662463042649072100000006980781939004433298_" class="st0" d="M161.8,85.7c-1.2,1.2-2.5,2.5-3.8,3.7V115
			h-15.4v-12.2c-5.6,4.5-11.5,8.8-17.8,13C73,150.5,18.7,160.3,3.6,137.8c-1.9-2.8-3.1-6.1-3.6-9.6c0.4,0.8,0.8,1.5,1.2,2.3
			c12.2,18.9,56.2,12.6,101.2-13.5c0.6-0.4,1.3-0.7,1.9-1.1c2.6-1.5,5.3-3.2,7.9-4.9c13-8.3,24.5-17.4,34.2-26.7
			c5.8-5.6,11-11.2,15.4-16.7c15.5-19.5,21.6-38,14.2-49.6C163-2.2,113.6,6.4,65.4,37.3c1.5-1.1,3.1-2.2,4.7-3.2
			C122-0.6,176.2-10.4,191.3,12.2C202.3,28.6,189.6,57.7,161.8,85.7z"/>
		<path id="XMLID_00000065793220425920131080000009406015337904709794_" class="st1" d="M172.6,29.7c-0.1-1.7-0.5-3.4-1.1-5
			c-0.6-1.6-1.5-3.1-2.5-4.4c-2.1-2.6-5-4.4-7.8-5.5c-2.8-1.2-5.7-1.7-8.3-2.1c-5.3-0.7-9.9-0.5-13.7-0.3c-3.8,0.2-6.7,0.7-8.7,1
			c-2,0.3-3,0.5-3,0.5s1.1-0.1,3.1-0.2c1-0.1,2.2-0.1,3.7-0.2c1.5,0,3.1-0.1,5-0.1c3.7,0,8.2,0.3,13.2,1.2c2.5,0.5,5.1,1.2,7.5,2.4
			c2.4,1.2,4.7,2.8,6.3,5c1.6,2.2,2.4,4.9,2.4,7.8c0.1,2.9-0.5,6-1.5,9.1c-2,6.2-5.7,12.4-9.9,18.4c-4.3,6-9.4,11.9-15.1,17.3
			c-5.6,5.3-12,10-18.2,14.5c10.6-13.4,34-46.4,34-46.4h-13.9l-22.5,30.7L99,42.9H85.2v71c-1.1,0.6-2.1,1.1-3.2,1.6
			c-7,3.4-13.9,6.5-20.7,8.8c-6.8,2.3-13.4,4-19.6,5c-6.2,0.9-12,1.2-17.1,0.8c-5.1-0.4-9.5-1.4-12.9-2.6c-3.4-1.3-5.9-2.7-7.3-4
			c-0.7-0.6-1.2-1.2-1.3-1.6c-0.1-0.2-0.1-0.4,0-0.5c0,0,0,0,0-0.1c0,0,0,0-0.1,0.1c-0.1,0.1-0.1,0.3,0,0.5c0.1,0.5,0.5,1.1,1.2,1.8
			c1.3,1.4,3.7,3.2,7.1,4.7c3.4,1.6,7.8,3,13.1,3.7c5.2,0.7,11.3,0.9,17.8,0.2c6.5-0.7,13.5-2.1,20.6-4.3c7.1-2.1,14.4-4.9,21.6-8.4
			c7.2-3.4,14.5-7.3,21.6-11.7c7.1-4.4,14-9,20.8-14c3.4-2.5,6.7-5,9.9-7.6c1.6-1.3,3.2-2.5,4.9-3.9c1.6-1.4,3.2-2.8,4.6-4.2
			c1.5-1.4,2.9-2.9,4.3-4.4c1.4-1.5,2.7-3,4-4.6c2.5-3.1,4.9-6.2,7.1-9.4c4.3-6.4,7.8-13,9.8-19.9C172.3,36.6,172.8,33.2,172.6,29.7
			z M102.8,103.8c-0.8,0.5-1.5,0.9-2.3,1.4V69.8l17.8,23.6C113.2,97,108,100.5,102.8,103.8z"/>
	</g>
</g>
</svg>
