<?xml version="1.0" encoding="utf-8"?>
<!-- Generator: Adobe Illustrator 28.0.0, SVG Export Plug-In . SVG Version: 6.00 Build 0)  -->
<svg version="1.1" id="Layer_1" xmlns="http://www.w3.org/2000/svg" xmlns:xlink="http://www.w3.org/1999/xlink" x="0px" y="0px"
	 viewBox="0 0 306.4 48.1" style="enable-background:new 0 0 306.4 48.1;" xml:space="preserve">
<style type="text/css">
	.st0{fill:#151515;}
	.st1{fill:#00AB0C;}
</style>
<g>
	<path class="st0" d="M0,38.3l7.8-3c0.8,3,3.4,5.5,7,5.5c2.5,0,4.2-1.4,4.2-3c0-5.2-17.9-1.6-17.9-14.2c0-5.2,4.5-9.3,12-9.3
		c7,0,12.6,3.3,14,7.9l-7.5,3.3c-0.8-3-3.4-4.4-5.9-4.4c-2.2,0-3.6,0.8-3.6,2.5c0,5.2,17.9,0.8,17.9,14.2c0,5.7-5.3,10.4-13.1,10.4
		C6.7,48.1,1.7,43.2,0,38.3z"/>
	<path class="st0" d="M31.8,31.1c0-9.8,7.3-16.9,17.6-16.9c10.3,0,17.6,7.1,17.6,16.9s-7.5,16.9-17.6,16.9
		C39.1,48.1,31.8,40.7,31.8,31.1z M57.5,31.1c0-5.2-3.1-8.7-7.8-8.7c-4.7,0-8.1,3.6-8.1,8.7s3.1,8.7,8.1,8.7
		C54.2,39.9,57.5,36.3,57.5,31.1z"/>
	<path class="st0" d="M75.1,22.7h-5.3v-7.9h5.3v-2.5C75.1,4.4,80.7,0,88,0c2,0,3.6,0.3,5.3,0.8l-0.6,7.6c-1.1-0.5-2.2-0.8-3.4-0.8
		c-2.8,0-4.2,1.6-4.2,4.6v2.2h7.5v8.2h-7.5v24.9h-9.8V22.7H75.1z"/>
	<path class="st1" d="M118.7,14.8v7.9h-8.1V35c0,3,1.7,4.6,3.9,4.6c1.1,0,2.8-0.3,3.9-0.8L119,47c-1.7,0.5-3.4,0.8-5.6,0.8
		c-7.3,0-12.8-3.8-12.8-11.7V22.7h-5.3v-7.9H118.7z"/>
	<path class="st0" d="M121,14.8h10.9L138,35l5.9-20.2h10.9l-12.3,32.8h-9.8L121,14.8z"/>
	<path class="st0" d="M189.7,34.4h-23.2c0.8,3.3,3.4,4.9,7,4.9c2.8,0,4.7-1.4,5.6-3.6l10.3,2.7c-2,6-8.1,9.6-16.2,9.6
		c-12,0-17.6-9.3-17.6-16.9s4.7-16.9,16.8-16.9c12.6,0,17.6,9.3,17.6,16.1C189.7,32,189.7,33.6,189.7,34.4z M177.9,26.8
		c-0.3-2.7-2-4.9-5.6-4.9c-3.1,0-5,1.6-5.9,4.9H177.9z"/>
	<path class="st0" d="M195.3,14.8h10.9v3.8c2-2.5,5.6-4.4,9.8-4.4c7.5,0,12.3,4.6,12.3,12v21.3h-10.9V29.2c0-3.3-2-5.5-5.3-5.5
		c-4.2,0-6.1,3.3-6.1,9.6v14.5H195V14.8H195.3z"/>
	<path class="st0" d="M234.1,31.1c0-9.8,7.3-16.9,17.3-16.9c9.2,0,15.6,4.4,16.8,12l-10.6,1.9c-0.6-3-2.5-4.9-5.6-4.9
		c-3.9,0-6.4,3-6.4,7.9c0,4.6,2.5,7.9,6.4,7.9c3.1,0,5-1.6,5.6-4.4l10.6,2.2c-1.1,6.8-7.5,11.2-16.8,11.2
		C241.1,48.1,234.1,41,234.1,31.1z"/>
	<path class="st0" d="M306.2,34.4H283c0.8,3.3,3.4,4.9,7,4.9c2.8,0,4.7-1.4,5.6-3.6l10.3,2.7c-2,6-8.1,9.6-16.2,9.6
		c-12,0-17.6-9.3-17.6-16.9s4.7-16.9,16.8-16.9c12.6,0,17.6,9.3,17.6,16.1C306.4,32,306.4,33.6,306.2,34.4z M294.4,26.8
		c-0.3-2.7-2-4.9-5.6-4.9c-3.1,0-5,1.6-5.9,4.9H294.4z"/>
</g>
</svg>
