<?xml version="1.0" encoding="utf-8"?>
<!-- Generator: Adobe Illustrator 28.0.0, SVG Export Plug-In . SVG Version: 6.00 Build 0)  -->
<svg version="1.1" id="Layer_1" xmlns="http://www.w3.org/2000/svg" xmlns:xlink="http://www.w3.org/1999/xlink" x="0px" y="0px"
	 viewBox="0 0 1119 479.6" style="enable-background:new 0 0 1119 479.6;" xml:space="preserve">
<style type="text/css">
	.st0{fill:#FFFFFF;}
	.st1{fill:#9ACA3C;}
</style>
<g>
	<g>
		<g>
			<g>
				<path class="st0" d="M373.2,277.2c-6-2.4-10.7-6.1-14.3-10.9c-3.6-4.8-5.5-10.6-5.6-17.3h26.7c0.4,3.8,1.7,6.7,4,8.7
					c2.2,2,5.2,3,8.8,3c3.7,0,6.6-0.9,8.8-2.6c2.1-1.7,3.2-4.1,3.2-7.1c0-2.5-0.9-4.6-2.6-6.3c-1.7-1.7-3.8-3-6.3-4.1
					c-2.5-1.1-6-2.3-10.6-3.7c-6.7-2.1-12.1-4.1-16.3-6.2c-4.2-2.1-7.8-5.1-10.9-9.1c-3-4-4.5-9.2-4.5-15.7
					c0-9.6,3.5-17.1,10.4-22.5c6.9-5.4,16-8.1,27.1-8.1c11.3,0,20.5,2.7,27.4,8.1c6.9,5.4,10.7,13,11.1,22.7h-27.1
					c-0.2-3.3-1.4-5.9-3.7-7.8c-2.3-1.9-5.1-2.9-8.7-2.9c-3,0-5.5,0.8-7.3,2.4c-1.9,1.6-2.8,3.9-2.8,7c0,3.3,1.6,5.9,4.7,7.8
					c3.1,1.9,8,3.9,14.7,6c6.6,2.3,12.1,4.4,16.2,6.5s7.8,5,10.8,8.9c3,3.9,4.5,8.9,4.5,15.1c0,5.9-1.5,11.2-4.5,16
					c-3,4.8-7.3,8.6-13,11.4c-5.7,2.8-12.4,4.3-20.1,4.3C385.9,280.8,379.1,279.6,373.2,277.2z"/>
				<path class="st0" d="M481.5,200.3c4.3-2.3,9.3-3.5,15.1-3.5c6.7,0,12.9,1.7,18.3,5.1c5.5,3.4,9.8,8.3,13,14.7
					c3.2,6.4,4.8,13.7,4.8,22.1s-1.6,15.8-4.8,22.2c-3.2,6.4-7.5,11.3-13,14.8c-5.5,3.5-11.6,5.2-18.3,5.2c-5.7,0-10.7-1.2-15-3.5
					c-4.4-2.3-7.8-5.4-10.2-9.1v50.5h-25.1V198h25.1v11.6C473.9,205.7,477.2,202.7,481.5,200.3z M502,224c-3.5-3.6-7.8-5.4-12.8-5.4
					c-5,0-9.2,1.8-12.7,5.4c-3.5,3.6-5.2,8.6-5.2,14.8c0,6.3,1.7,11.2,5.2,14.8c3.5,3.6,7.7,5.4,12.7,5.4c5,0,9.2-1.8,12.8-5.5
					c3.5-3.7,5.3-8.6,5.3-14.9C507.2,232.5,505.5,227.6,502,224z"/>
				<path class="st0" d="M545.7,216.6c3.2-6.4,7.5-11.2,13-14.7c5.5-3.4,11.6-5.1,18.3-5.1c5.8,0,10.8,1.2,15.2,3.5
					c4.3,2.3,7.7,5.4,10,9.2V198h25.1v81.8h-25.1v-11.6c-2.4,3.8-5.8,6.9-10.2,9.2c-4.4,2.3-9.4,3.5-15.2,3.5
					c-6.7,0-12.7-1.7-18.2-5.2c-5.5-3.5-9.8-8.4-13-14.8c-3.2-6.4-4.8-13.8-4.8-22.2S542.5,222.9,545.7,216.6z M597,224.1
					c-3.5-3.6-7.7-5.4-12.7-5.4c-5,0-9.2,1.8-12.7,5.4c-3.5,3.6-5.2,8.5-5.2,14.7c0,6.3,1.7,11.2,5.2,14.9s7.7,5.5,12.7,5.5
					c5,0,9.2-1.8,12.7-5.4c3.5-3.6,5.2-8.6,5.2-14.8C602.3,232.6,600.5,227.7,597,224.1z"/>
				<path class="st0" d="M681.6,201c4.4-2.6,9.3-3.9,14.7-3.9v26.5h-6.9c-6.3,0-11,1.3-14.1,4c-3.1,2.7-4.7,7.4-4.7,14.2v38h-25.1
					V198h25.1v13.6C673.5,207.1,677.2,203.6,681.6,201z"/>
				<path class="st0" d="M758.3,279.8l-24.9-34.3v34.3h-25.1V171.3h25.1v60l24.8-33.3h30.9l-34,41.1l34.3,40.8H758.3z"/>
				<path class="st0" d="M844.6,258.5v21.3h-12.8c-9.1,0-16.2-2.2-21.3-6.7c-5.1-4.4-7.6-11.7-7.6-21.8v-32.6h-10V198h10V178H828
					V198h16.4v20.8H828v32.9c0,2.4,0.6,4.2,1.8,5.3c1.2,1.1,3.1,1.6,5.9,1.6H844.6z"/>
				<path class="st0" d="M935.2,244.9h-56.8c0.4,5.1,2,9,4.9,11.7c2.9,2.7,6.4,4,10.6,4c6.3,0,10.6-2.6,13.1-7.9h26.7
					c-1.4,5.4-3.8,10.2-7.4,14.5c-3.6,4.3-8,7.7-13.4,10.1c-5.4,2.4-11.4,3.7-18,3.7c-8,0-15.2-1.7-21.4-5.1
					c-6.3-3.4-11.1-8.3-14.7-14.7c-3.5-6.4-5.3-13.8-5.3-22.3c0-8.5,1.7-15.9,5.2-22.3c3.5-6.4,8.3-11.2,14.6-14.7
					c6.3-3.4,13.4-5.1,21.6-5.1c7.9,0,15,1.7,21.1,5c6.2,3.3,11,8.1,14.4,14.2c3.5,6.2,5.2,13.3,5.2,21.6
					C935.7,239.9,935.5,242.4,935.2,244.9z M910,231c0-4.3-1.5-7.7-4.4-10.3c-2.9-2.5-6.6-3.8-11-3.8c-4.2,0-7.8,1.2-10.6,3.7
					c-2.9,2.4-4.7,5.9-5.4,10.4H910z"/>
				<path class="st0" d="M949.1,216.6c3.5-6.4,8.3-11.2,14.5-14.7c6.2-3.4,13.3-5.1,21.3-5.1c10.3,0,18.8,2.7,25.7,8.1
					c6.9,5.4,11.4,13,13.6,22.7h-26.7c-2.3-6.3-6.6-9.4-13.1-9.4c-4.6,0-8.3,1.8-11,5.4c-2.7,3.6-4.1,8.7-4.1,15.3
					c0,6.7,1.4,11.8,4.1,15.3c2.7,3.6,6.4,5.4,11,5.4c6.5,0,10.8-3.1,13.1-9.4h26.7c-2.2,9.6-6.7,17.1-13.6,22.6
					c-6.9,5.5-15.5,8.2-25.7,8.2c-8,0-15.1-1.7-21.3-5.1c-6.2-3.4-11-8.3-14.5-14.7c-3.5-6.4-5.2-13.8-5.2-22.3
					C943.9,230.4,945.6,222.9,949.1,216.6z"/>
				<path class="st0" d="M1110.5,206.4c5.7,6.2,8.5,14.7,8.5,25.6v47.8h-24.9v-44.4c0-5.5-1.4-9.7-4.3-12.8c-2.8-3-6.6-4.5-11.4-4.5
					c-4.8,0-8.6,1.5-11.4,4.5c-2.8,3-4.3,7.3-4.3,12.8v44.4h-25.1V171.3h25.1V209c2.5-3.6,6-6.5,10.4-8.7c4.4-2.1,9.3-3.2,14.8-3.2
					C1097.3,197.1,1104.8,200.2,1110.5,206.4z"/>
			</g>
		</g>
		<g>
			<g>
				<path class="st0" d="M403.7,383.5H370l-6.2,17.2h-10.6l27.9-76.8h11.6l27.8,76.8h-10.6L403.7,383.5z M400.8,375.3l-14-39l-14,39
					H400.8z"/>
				<path class="st0" d="M471.6,342.4c3.9,2.3,6.9,5.2,8.8,8.6v-11.1h10.2v62c0,5.5-1.2,10.5-3.5,14.8c-2.4,4.3-5.7,7.7-10.1,10.1
					c-4.4,2.4-9.5,3.7-15.3,3.7c-8,0-14.6-1.9-19.9-5.6c-5.3-3.8-8.5-8.9-9.4-15.4h10c1.1,3.7,3.4,6.7,6.9,8.9
					c3.5,2.3,7.6,3.4,12.5,3.4c5.5,0,10.1-1.7,13.6-5.2c3.5-3.5,5.3-8.3,5.3-14.6v-12.7c-2,3.5-5,6.5-8.9,8.9
					c-3.9,2.4-8.5,3.5-13.7,3.5c-5.4,0-10.3-1.3-14.7-4c-4.4-2.7-7.8-6.4-10.4-11.2c-2.5-4.8-3.8-10.3-3.8-16.4
					c0-6.2,1.3-11.6,3.8-16.3c2.5-4.7,6-8.3,10.4-10.9c4.4-2.6,9.3-3.9,14.7-3.9C463,338.9,467.6,340.1,471.6,342.4z M477.6,358.2
					c-1.8-3.4-4.3-6-7.5-7.8c-3.1-1.8-6.6-2.7-10.4-2.7c-3.8,0-7.2,0.9-10.3,2.7s-5.6,4.4-7.4,7.8c-1.8,3.4-2.8,7.4-2.8,12
					c0,4.7,0.9,8.7,2.8,12.1c1.8,3.4,4.3,6.1,7.4,7.9c3.1,1.8,6.5,2.7,10.3,2.7c3.8,0,7.2-0.9,10.4-2.7c3.1-1.8,5.6-4.4,7.5-7.9
					s2.8-7.4,2.8-12S479.4,361.6,477.6,358.2z"/>
				<path class="st0" d="M562.6,374h-48.5c0.4,6,2.4,10.7,6.1,14c3.7,3.4,8.3,5,13.6,5c4.4,0,8-1,10.9-3c2.9-2,5-4.7,6.1-8.1h10.9
					c-1.6,5.8-4.9,10.6-9.7,14.2c-4.9,3.7-10.9,5.5-18.2,5.5c-5.8,0-10.9-1.3-15.5-3.9c-4.5-2.6-8.1-6.3-10.7-11
					c-2.6-4.8-3.9-10.3-3.9-16.6c0-6.3,1.3-11.8,3.8-16.5c2.5-4.7,6-8.4,10.6-10.9c4.5-2.5,9.8-3.8,15.7-3.8
					c5.8,0,10.9,1.3,15.3,3.8c4.4,2.5,7.8,6,10.2,10.4c2.4,4.4,3.6,9.4,3.6,14.9C563,369.9,562.9,371.9,562.6,374z M550,355.9
					c-1.7-2.8-4-4.9-6.9-6.3c-2.9-1.4-6.1-2.2-9.7-2.2c-5.1,0-9.4,1.6-13,4.9c-3.6,3.3-5.6,7.8-6.1,13.5h38.3
					C552.6,362,551.7,358.7,550,355.9z"/>
				<path class="st0" d="M623.8,345.5c4.6,4.5,6.9,10.9,6.9,19.3v35.8h-10v-34.3c0-6.1-1.5-10.7-4.5-13.9c-3-3.2-7.2-4.8-12.4-4.8
					c-5.3,0-9.5,1.7-12.7,5s-4.7,8.2-4.7,14.5v33.6h-10.1v-60.7h10.1v8.6c2-3.1,4.7-5.5,8.1-7.2c3.4-1.7,7.2-2.5,11.4-2.5
					C613.2,338.8,619.2,341,623.8,345.5z"/>
				<path class="st0" d="M647.2,353.7c2.5-4.7,6-8.3,10.5-10.9c4.5-2.6,9.6-3.9,15.3-3.9c7.5,0,13.6,1.8,18.4,5.4
					c4.8,3.6,8,8.6,9.6,15.1h-10.9c-1-3.7-3-6.6-6-8.8c-3-2.1-6.7-3.2-11.1-3.2c-5.8,0-10.4,2-14,5.9c-3.5,4-5.3,9.5-5.3,16.8
					c0,7.3,1.8,13,5.3,16.9c3.5,4,8.2,6,14,6c4.4,0,8.1-1,11.1-3.1c3-2.1,5-5,6.1-8.9H701c-1.6,6.2-4.9,11.2-9.7,14.9
					c-4.9,3.7-11,5.6-18.3,5.6c-5.8,0-10.9-1.3-15.3-3.9c-4.5-2.6-8-6.2-10.5-11c-2.5-4.7-3.8-10.3-3.8-16.6
					C643.4,363.9,644.6,358.4,647.2,353.7z"/>
				<path class="st0" d="M766.7,339.9l-36.6,89.3h-10.4l12-29.2l-24.5-60h11.2l19.1,49.2l18.8-49.2H766.7z"/>
			</g>
		</g>
	</g>
	<g>
		<path class="st1" d="M287.7,311.7c11,11,11,28.9,0,39.9l-20,20l-39.9,39.9l-39.9,39.9l-20,20c-11,11-28.9,11-39.9,0l0,0
			c-11-11-11-28.9,0-39.9l20-20l39.9-39.9l39.9-39.9l-59.9-59.9c-11-11-11-28.9,0-39.9l0,0c11-11,28.9-11,39.9,0l20,20l39.9,39.9
			L287.7,311.7z"/>
		<path class="st1" d="M68.1,251.8l39.9,39.9l20,20c11,11,11,28.9,0,39.9l0,0c-11,11-28.9,11-39.9,0L8.3,271.8
			c-11-11-11-28.9,0-39.9l20-20l79.8-79.8l20-20c11-11,28.9-11,39.9,0l0,0c11,11,11,28.9,0,39.9L68.1,251.8z"/>
		<g>
			<path class="st1" d="M268.6,69.8c-44.2,3.9-47.3,7-51.1,51.1c-3.9-44.2-7-47.3-51.1-51.1c44.2-3.9,47.3-7,51.1-51.1
				C221.3,62.9,224.4,66,268.6,69.8z"/>
			<path class="st1" d="M201.3,26.8c-23.2,2-24.8,3.7-26.8,26.8c-2-23.2-3.7-24.8-26.8-26.8c23.2-2,24.8-3.7,26.8-26.8
				C176.5,23.2,178.1,24.8,201.3,26.8z"/>
		</g>
	</g>
</g>
</svg>
